<?xml version="1.0" encoding="UTF-8"?>
<svg version="1.1" xmlns="http://www.w3.org/2000/svg" width="306" height="575">
<path d="M0 0 C2.74978869 0.02143865 5.4993756 0.02085252 8.24923325 0.01997757 C55.23742011 0.02374101 55.23742011 0.02374101 68.70739746 3.39123535 C68.70739746 33.75123535 68.70739746 64.11123535 68.70739746 95.39123535 C34.45739746 96.20373535 34.45739746 96.20373535 23.7142334 96.43737793 C20.48643326 96.52070434 20.48643326 96.52070434 17.25872803 96.60758972 C15.84104048 96.64406278 14.42321221 96.67532876 13.00531006 96.70219421 C-0.27148025 96.96034077 -13.28083158 98.23502898 -24.29260254 106.39123535 C-34.2734053 117.03604163 -35.39571489 131.37112654 -35.60900879 145.1842041 C-35.64018044 146.89607658 -35.64018044 146.89607658 -35.67198181 148.64253235 C-35.71513496 151.05897507 -35.75619012 153.47545604 -35.79528809 155.89196777 C-35.85417199 159.52137909 -35.91946263 163.15062831 -35.98596191 166.77990723 C-36.22561364 180.31831692 -36.35390673 193.85079377 -36.29260254 207.39123535 C-35.45567871 207.38599854 -34.61875488 207.38076172 -33.75646973 207.37536621 C-11.13837621 207.25640287 11.46820057 207.49630523 34.08239746 207.89123535 C34.7673378 207.90319317 35.45227814 207.91515099 36.15797424 207.92747116 C44.6745484 208.07665362 53.19101751 208.23134678 61.70739746 208.39123535 C62.09365728 218.66465382 60.89264577 228.58561762 59.59020996 238.7467041 C59.37027641 240.50154696 59.15087504 242.25645659 58.93197632 244.01142883 C58.47419691 247.66882218 58.0114486 251.32553947 57.5447998 254.98181152 C56.94952941 259.64744709 56.36462864 264.31430938 55.78317451 268.98168468 C55.33184189 272.59823536 54.87611291 276.2142212 54.41897202 279.83004189 C54.2018176 281.55014713 53.98574506 283.27038934 53.7708168 284.99077415 C51.70853929 301.44923959 51.70853929 301.44923959 49.70739746 309.39123535 C41.74282342 309.52375632 33.77821959 309.65425582 25.81357384 309.78238678 C22.11263823 309.84198445 18.41171515 309.90220029 14.71081543 309.96398926 C-2.29137678 310.24738659 -19.28746781 310.45820427 -36.29260254 310.39123535 C-36.29145699 311.27091288 -36.29031143 312.1505904 -36.28913116 313.05692482 C-36.25838436 340.92802672 -36.36191036 368.79785578 -36.49453163 396.66860533 C-36.52319697 402.73293488 -36.55084473 408.79726907 -36.57861328 414.86160278 C-36.63103901 426.27844844 -36.68434301 437.69528981 -36.73798513 449.11212981 C-36.81064085 464.58694016 -36.88189402 480.06175697 -36.95323753 495.53657341 C-37.06523411 519.82146606 -37.17906492 544.10634975 -37.29260254 568.39123535 C-70.62260254 568.39123535 -103.95260254 568.39123535 -138.29260254 568.39123535 C-138.29260254 482.92123535 -138.29260254 397.45123535 -138.29260254 309.39123535 C-167.00260254 309.39123535 -195.71260254 309.39123535 -225.29260254 309.39123535 C-225.29260254 276.06123535 -225.29260254 242.73123535 -225.29260254 208.39123535 C-215.18635254 208.22623535 -205.08010254 208.06123535 -194.66760254 207.89123535 C-191.52664062 207.83902832 -188.38567871 207.78682129 -185.14953613 207.73303223 C-169.86290568 207.48554469 -154.58161377 207.3173853 -139.29260254 207.39123535 C-139.29783936 206.53336426 -139.30307617 205.67549316 -139.30847168 204.79162598 C-139.41314015 184.47269342 -139.31376494 164.1545095 -139.02914429 143.83728027 C-138.99677883 141.39804885 -138.96911264 138.95874997 -138.94644165 136.51940918 C-138.77661894 118.99262235 -137.87152663 102.17024401 -132.60510254 85.32873535 C-132.35019043 84.50421875 -132.09527832 83.67970215 -131.8326416 82.8302002 C-122.20651833 52.86501 -101.55919414 28.09822437 -73.61291504 13.4576416 C-69.03305677 11.19307393 -64.34580697 9.31383027 -59.54260254 7.57873535 C-58.81863281 7.31286621 -58.09466309 7.04699707 -57.34875488 6.77307129 C-54.68492044 5.87017281 -52.01055027 5.11703415 -49.29260254 4.39123535 C-48.66561462 4.21938721 -48.03862671 4.04753906 -47.39263916 3.8704834 C-31.74333963 -0.2683403 -16.06317055 -0.15682838 0 0 Z " fill="#FFFFFF" transform="translate(228.2926025390625,2.6087646484375)"/>
</svg>
