<?xml version="1.0" encoding="UTF-8"?>
<svg version="1.1" xmlns="http://www.w3.org/2000/svg" width="605" height="579">
<path d="M0 0 C1.65484711 0.20783551 3.30978741 0.41493108 4.96484375 0.62109375 C80.91438161 10.7191777 157.45494897 50.11101587 204.5625 111.3125 C206.73396685 114.18993132 208.87466568 117.08836732 211 120 C211.4419873 120.60118652 211.88397461 121.20237305 212.33935547 121.82177734 C237.31290035 156.19575067 250.52933859 197.91487368 250.3125 240.25 C250.31034485 241.01379974 250.3081897 241.77759949 250.30596924 242.56454468 C250.25169285 254.59523589 249.69903055 266.23271978 247 278 C246.81195801 278.84143555 246.62391602 279.68287109 246.43017578 280.54980469 C237.14352062 320.81414092 216.03541283 358.16838212 190 390 C189.29359375 390.88429688 188.5871875 391.76859375 187.859375 392.6796875 C179.38303323 403.19888861 170.67023661 413.5984174 160.98046875 423.0234375 C159.03359806 424.96646821 157.22944381 426.97659687 155.4375 429.0625 C150.05245112 435.31610515 144.17794667 440.92196149 137.921875 446.29296875 C136.0900398 447.92002562 134.38871889 449.61302329 132.6875 451.375 C128.98835622 455.14140094 124.9221279 458.38192973 120.8125 461.6875 C118.19034106 463.84349735 115.68391432 466.07567103 113.1875 468.375 C97.10650755 482.97120598 78.98789411 495.87920663 61 508 C59.39318359 509.10794922 59.39318359 509.10794922 57.75390625 510.23828125 C45.85209962 518.38464705 33.42770475 525.69197159 21 533 C20.26700684 533.4316748 19.53401367 533.86334961 18.77880859 534.30810547 C-49.80096243 574.43919768 -49.80096243 574.43919768 -69 571 C-72.13594153 569.73227896 -73.56546548 568.47948636 -75.8125 566 C-79.69428211 556.19339257 -75.8657062 543.72242453 -74.13623047 533.62646484 C-70.53918125 514.40690515 -70.53918125 514.40690515 -75 496 C-81.18373979 487.94239967 -91.62850742 485.19579259 -101.125 483.0625 C-102.18976563 482.81290527 -103.25453125 482.56331055 -104.3515625 482.30615234 C-111.83466473 480.59520795 -119.35798679 479.18687066 -126.91430664 477.84985352 C-142.41802368 475.10467675 -157.15314359 471.33023528 -172 466 C-172.88091309 465.69368652 -173.76182617 465.38737305 -174.66943359 465.07177734 C-196.91493284 457.31581217 -218.34006035 446.98934827 -238 434 C-238.67530762 433.55978516 -239.35061523 433.11957031 -240.04638672 432.66601562 C-256.36349225 421.98289277 -270.98664176 409.52916503 -285 396 C-285.51965332 395.50226074 -286.03930664 395.00452148 -286.57470703 394.49169922 C-293.2657286 388.0635001 -299.33437479 381.34610726 -305 374 C-305.42249023 373.4539209 -305.84498047 372.9078418 -306.28027344 372.34521484 C-335.43833485 334.40139717 -352.20975034 290.31218838 -352.25 242.25 C-352.25067474 241.5221228 -352.25134949 240.79424561 -352.25204468 240.04431152 C-352.23365997 227.49528785 -351.43265253 215.33888827 -349 203 C-348.82839355 202.1248877 -348.65678711 201.24977539 -348.47998047 200.34814453 C-341.83613559 167.66327764 -327.09210081 136.8161991 -306 111 C-305.26523437 110.0615625 -304.53046875 109.123125 -303.7734375 108.15625 C-297.35240396 100.2083909 -290.19861606 92.98649192 -283 85.75 C-282.49152527 85.23625824 -281.98305054 84.72251648 -281.45916748 84.19320679 C-274.64854449 77.3281657 -267.63407926 70.96033768 -260 65 C-259.35289062 64.49355957 -258.70578125 63.98711914 -258.0390625 63.46533203 C-240.88544557 50.26539095 -222.37132787 39.58432431 -203 30 C-202.19578613 29.5968457 -201.39157227 29.19369141 -200.56298828 28.77832031 C-167.65112431 12.4511406 -131.13092367 4.20913936 -95 -1 C-93.63319092 -1.20133545 -93.63319092 -1.20133545 -92.23876953 -1.40673828 C-62.14185578 -5.6116716 -30.00566702 -4.18437813 0 0 Z M-252 176 C-254.8095124 178.8095124 -254.35061646 181.51275602 -254.40966797 185.28076172 C-254.42874332 186.03113834 -254.44781868 186.78151497 -254.46747208 187.55463028 C-254.52767732 190.05453484 -254.57289384 192.55445375 -254.6171875 195.0546875 C-254.65475765 196.8172986 -254.69267646 198.5799023 -254.73092651 200.34249878 C-255.09012265 217.88300295 -255.15377258 235.42463699 -255.13037109 252.96826172 C-255.12575708 256.43833115 -255.12586493 259.90834838 -255.13037109 263.37841797 C-255.19659892 286.59553084 -255.19659892 286.59553084 -254.6796875 309.8046875 C-254.65770294 310.64081573 -254.63571838 311.47694397 -254.61306763 312.33840942 C-254.53491044 314.78403991 -254.53491044 314.78403991 -254 318 C-250.87156196 320.08562536 -250.07849007 320.26167901 -246.50488281 320.3347168 C-245.58858597 320.35775375 -244.67228912 320.38079071 -243.72822571 320.40452576 C-242.72994247 320.41927444 -241.73165924 320.43402313 -240.703125 320.44921875 C-239.13482185 320.48264122 -239.13482185 320.48264122 -237.53483582 320.51673889 C-234.10665794 320.58528319 -230.6784984 320.63770267 -227.25 320.6875 C-225.50724289 320.71644348 -225.50724289 320.71644348 -223.72927856 320.74597168 C-207.9618759 321.00303487 -192.20405039 321.07419736 -176.4375 320.75 C-175.60939819 320.73730072 -174.78129639 320.72460144 -173.92810059 320.71151733 C-171.6166999 320.67269633 -169.30683584 320.61361933 -166.99609375 320.546875 C-165.70888428 320.51432617 -164.4216748 320.48177734 -163.09545898 320.44824219 C-160.0806025 320.21369096 -160.0806025 320.21369096 -158.08764648 318.86035156 C-156.48109412 316.11244381 -156.61097802 313.85470051 -156.6015625 310.6875 C-156.59769531 309.44742188 -156.59382813 308.20734375 -156.58984375 306.9296875 C-156.60144531 305.63289062 -156.61304688 304.33609375 -156.625 303 C-156.61339844 301.70320313 -156.60179687 300.40640625 -156.58984375 299.0703125 C-156.59371094 297.83023438 -156.59757812 296.59015625 -156.6015625 295.3125 C-156.60663818 293.60513672 -156.60663818 293.60513672 -156.61181641 291.86328125 C-156.79419635 289.04595267 -156.79419635 289.04595267 -158.16235352 287.13745117 C-160.75436867 285.53306714 -162.76033042 285.56408842 -165.80078125 285.48828125 C-167.61352539 285.43510742 -167.61352539 285.43510742 -169.46289062 285.38085938 C-171.36844727 285.34702148 -171.36844727 285.34702148 -173.3125 285.3125 C-174.47845703 285.27833984 -175.64441406 285.24417969 -176.84570312 285.20898438 C-191.22496966 284.84372566 -205.61723355 284.97134468 -220 285 C-219.99777939 283.95669022 -219.99555878 282.91338043 -219.99327087 281.8384552 C-219.9728259 271.91160127 -219.95792645 261.98475172 -219.94818783 252.05788136 C-219.94301251 246.9567914 -219.9360146 241.8557187 -219.92456055 236.75463867 C-219.91353831 231.81384301 -219.90768311 226.87306373 -219.90512276 221.9322567 C-219.90330277 220.06562734 -219.8997509 218.19899868 -219.89426994 216.33237648 C-219.85728847 203.19157328 -220.26671204 190.12045522 -221 177 C-228.85330995 173.07334503 -243.60262641 174.61845785 -252 176 Z M-138 176 C-140.41254887 179.6188233 -140.30435312 181.39820145 -140.4140625 185.71484375 C-140.43351929 186.41219131 -140.45297607 187.10953888 -140.47302246 187.82801819 C-140.53480545 190.19772031 -140.58066159 192.56741062 -140.625 194.9375 C-140.643349 195.76967041 -140.661698 196.60184082 -140.68060303 197.45922852 C-141.41977849 231.13155009 -141.39584966 264.86707363 -140.73553467 298.54077148 C-140.70380143 300.20670595 -140.67657627 301.8727331 -140.65411377 303.53881836 C-140.62153629 305.78822141 -140.56990162 308.03629003 -140.51171875 310.28515625 C-140.48553467 311.52144775 -140.45935059 312.75773926 -140.43237305 314.03149414 C-140.20424255 316.93581893 -140.20424255 316.93581893 -138.86254883 318.89477539 C-136.11518853 320.52504149 -133.86568901 320.38898932 -130.6875 320.3984375 C-129.44742188 320.40230469 -128.20734375 320.40617188 -126.9296875 320.41015625 C-125.63289062 320.39855469 -124.33609375 320.38695312 -123 320.375 C-121.05480469 320.39240234 -121.05480469 320.39240234 -119.0703125 320.41015625 C-117.21019531 320.40435547 -117.21019531 320.40435547 -115.3125 320.3984375 C-113.60513672 320.39336182 -113.60513672 320.39336182 -111.86328125 320.38818359 C-109.05646155 320.19726241 -109.05646155 320.19726241 -107.13745117 318.89477539 C-105.41996968 316.03378078 -105.55866327 313.60827026 -105.48828125 310.28515625 C-105.47023941 309.58780869 -105.45219757 308.89046112 -105.43360901 308.17198181 C-105.37758832 305.80220536 -105.34445574 303.43271597 -105.3125 301.0625 C-105.27994656 299.35350628 -105.24689058 297.64452207 -105.21337891 295.93554688 C-104.61552688 262.28420681 -104.63306394 228.58605116 -105.375 194.9375 C-105.39793121 193.71172241 -105.39793121 193.71172241 -105.42132568 192.46118164 C-105.46566154 190.21198754 -105.52319493 187.96358997 -105.5859375 185.71484375 C-105.6173584 184.47855225 -105.6487793 183.24226074 -105.68115234 181.96850586 C-105.78815931 178.81653702 -105.78815931 178.81653702 -108 176 C-111.07116597 175.53187025 -111.07116597 175.53187025 -114.6875 175.6015625 C-115.34580811 175.59869232 -116.00411621 175.59582214 -116.68237305 175.59286499 C-118.07439026 175.59082324 -119.46643609 175.59636098 -120.85839844 175.60888672 C-122.99218747 175.62494122 -125.12408255 175.60904437 -127.2578125 175.58984375 C-128.60937919 175.59182617 -129.9609447 175.59566981 -131.3125 175.6015625 C-133.16294922 175.60663818 -133.16294922 175.60663818 -135.05078125 175.61181641 C-136.51064453 175.80396729 -136.51064453 175.80396729 -138 176 Z M-84 176 C-86.8095124 178.8095124 -86.35061646 181.51275602 -86.40966797 185.28076172 C-86.42874332 186.03113834 -86.44781868 186.78151497 -86.46747208 187.55463028 C-86.52767732 190.05453484 -86.57289384 192.55445375 -86.6171875 195.0546875 C-86.65475765 196.8172986 -86.69267646 198.5799023 -86.73092651 200.34249878 C-87.09012265 217.88300295 -87.15377258 235.42463699 -87.13037109 252.96826172 C-87.12575708 256.43833115 -87.12586493 259.90834838 -87.13037109 263.37841797 C-87.19659892 286.59553084 -87.19659892 286.59553084 -86.6796875 309.8046875 C-86.65770294 310.64081573 -86.63571838 311.47694397 -86.61306763 312.33840942 C-86.53491044 314.78403991 -86.53491044 314.78403991 -86 318 C-80.92832808 321.38111461 -74.95540394 320.36908012 -69 320.375 C-67.70320313 320.39949219 -66.40640625 320.42398438 -65.0703125 320.44921875 C-63.83023437 320.45308594 -62.59015625 320.45695313 -61.3125 320.4609375 C-59.60513672 320.47326416 -59.60513672 320.47326416 -57.86328125 320.48583984 C-54.97484776 320.27131774 -54.97484776 320.27131774 -53.35380554 318.4225769 C-51.50508691 315.11437428 -51.55947 312.53602773 -51.47583008 308.75292969 C-51.45588486 308.03058136 -51.43593964 307.30823303 -51.41539001 306.56399536 C-51.35305955 304.18340119 -51.3111988 301.80291297 -51.26953125 299.421875 C-51.23023973 297.7684632 -51.18966949 296.11508133 -51.14787292 294.46173096 C-51.04142997 290.11528669 -50.95235229 285.76865345 -50.86688232 281.42175293 C-50.77655486 276.98404889 -50.66981427 272.54674305 -50.56445312 268.109375 C-50.36023382 259.40655578 -50.17435766 250.70346845 -50 242 C-49.61550186 242.52287094 -49.23100372 243.04574188 -48.83485413 243.5844574 C-42.07544562 252.77399341 -35.31476452 261.96062512 -28.4375 271.0625 C-23.05899185 278.20355266 -17.78979362 285.4145296 -12.57983398 292.67919922 C-8.53311089 298.3054233 -4.35166285 303.80979657 -0.09375 309.27734375 C1.66642991 311.56623441 3.35270753 313.87962276 5 316.25 C6.71230177 319.0479497 6.71230177 319.0479497 9 320 C13.64070511 320.27194046 18.28973517 320.23163846 22.9375 320.25 C24.23880859 320.270625 25.54011719 320.29125 26.88085938 320.3125 C28.12544922 320.31765625 29.37003906 320.3228125 30.65234375 320.328125 C32.36925415 320.34214355 32.36925415 320.34214355 34.12084961 320.35644531 C36.94179037 320.20146297 36.94179037 320.20146297 38.86474609 318.89916992 C40.5770254 316.03469234 40.44132079 313.60902295 40.51171875 310.28515625 C40.52976059 309.58780869 40.54780243 308.89046112 40.56639099 308.17198181 C40.62241168 305.80220536 40.65554426 303.43271597 40.6875 301.0625 C40.72005344 299.35350628 40.75310942 297.64452207 40.78662109 295.93554688 C41.38447312 262.28420681 41.36693606 228.58605116 40.625 194.9375 C40.60206879 193.71172241 40.60206879 193.71172241 40.57867432 192.46118164 C40.53433846 190.21198754 40.47680507 187.96358997 40.4140625 185.71484375 C40.3826416 184.47855225 40.3512207 183.24226074 40.31884766 181.96850586 C40.21184069 178.81653702 40.21184069 178.81653702 38 176 C34.92883403 175.53187025 34.92883403 175.53187025 31.3125 175.6015625 C30.65419189 175.59869232 29.99588379 175.59582214 29.31762695 175.59286499 C27.92560974 175.59082324 26.53356391 175.59636098 25.14160156 175.60888672 C23.00781253 175.62494122 20.87591745 175.60904437 18.7421875 175.58984375 C17.39062081 175.59182617 16.0390553 175.59566981 14.6875 175.6015625 C12.83705078 175.60663818 12.83705078 175.60663818 10.94921875 175.61181641 C9.97597656 175.73991699 9.00273437 175.86801758 8 176 C5.63602148 179.54596778 5.657707 182.12505724 5.58935547 186.2253418 C5.56955627 186.95729767 5.54975708 187.68925354 5.52935791 188.44338989 C5.46620235 190.86186808 5.41664437 193.28042485 5.3671875 195.69921875 C5.32604185 197.37647031 5.28404872 199.05370128 5.24124146 200.73091125 C5.13086717 205.14481938 5.03201973 209.55891361 4.93554688 213.97314453 C4.83506733 218.4777075 4.72372116 222.9820003 4.61328125 227.48632812 C4.39820055 236.32398793 4.19529274 245.16188234 4 254 C2.40677763 251.93279904 0.81408139 249.86519627 -0.77832031 247.79736328 C-1.2255545 247.21718948 -1.6727887 246.63701569 -2.13357544 246.03926086 C-5.73410364 241.36244973 -9.26384308 236.63771803 -12.75 231.875 C-13.95308677 230.23695109 -15.15621291 228.59893109 -16.359375 226.9609375 C-16.96201172 226.13948242 -17.56464844 225.31802734 -18.18554688 224.47167969 C-21.11805754 220.47696252 -24.05940753 216.4887694 -27 212.5 C-28.15497548 210.93231197 -29.3099233 209.36460357 -30.46484375 207.796875 C-32.91396346 204.47292287 -35.36473056 201.15019229 -37.81640625 197.828125 C-38.44353516 196.97798828 -39.07066406 196.12785156 -39.71679688 195.25195312 C-40.90907674 193.63575153 -42.10175681 192.01984507 -43.29492188 190.40429688 C-43.83826172 189.66759766 -44.38160156 188.93089844 -44.94140625 188.171875 C-45.45848145 187.47126953 -45.97555664 186.77066406 -46.50830078 186.04882812 C-47.95918089 184.05606447 -49.36914069 182.0386628 -50.77734375 180.015625 C-52.66265788 176.97922977 -52.66265788 176.97922977 -55 176 C-64.56119762 174.87368091 -74.46692181 174.43161088 -84 176 Z M96.33544922 175.00585938 C91.91236867 175.00938624 87.49040049 175.04602387 83.06765747 175.09967041 C81.2816524 175.1164712 79.49552252 175.12320772 77.70944214 175.11956787 C75.18794111 175.11679657 72.66950982 175.15184163 70.1484375 175.1953125 C69.38587143 175.18622864 68.62330536 175.17714478 67.83763123 175.16778564 C64.14194605 175.26953612 62.2857701 175.75194757 59.47509766 178.19165039 C56.65843157 183.47633669 57.8950154 189.99091042 58.25 195.73828125 C58.39192263 198.63959968 58.51490356 201.54162306 58.63671875 204.44384766 C58.67039047 205.21022017 58.70406219 205.97659269 58.73875427 206.76618862 C59.1239212 216.02396092 59.09267401 225.27889442 59.0625 234.54296875 C59.05884839 236.32569346 59.05534986 238.10841849 59.05200195 239.8911438 C59.03997524 245.3232843 59.02058077 250.75538612 59 256.1875 C58.79117691 283.06093321 58.79117691 283.06093321 59.3125 309.92578125 C59.33497803 310.75450241 59.35745605 311.58322357 59.38061523 312.4370575 C59.4602324 314.84625334 59.4602324 314.84625334 60 318 C63.12843804 320.08562536 63.92150993 320.26167901 67.49511719 320.3347168 C68.41141403 320.35775375 69.32771088 320.38079071 70.27177429 320.40452576 C71.27005753 320.41927444 72.26834076 320.43402313 73.296875 320.44921875 C74.86517815 320.48264122 74.86517815 320.48264122 76.46516418 320.51673889 C79.89334206 320.58528319 83.3215016 320.63770267 86.75 320.6875 C88.49275711 320.71644348 88.49275711 320.71644348 90.27072144 320.74597168 C106.0381241 321.00303487 121.79594961 321.07419736 137.5625 320.75 C138.39060181 320.73730072 139.21870361 320.72460144 140.07189941 320.71151733 C142.3833001 320.67269633 144.69316416 320.61361933 147.00390625 320.546875 C148.29111572 320.51432617 149.5783252 320.48177734 150.90454102 320.44824219 C153.9193975 320.21369096 153.9193975 320.21369096 155.91235352 318.86035156 C157.51890588 316.11244381 157.38902198 313.85470051 157.3984375 310.6875 C157.40230469 309.44742188 157.40617187 308.20734375 157.41015625 306.9296875 C157.39855469 305.63289062 157.38695312 304.33609375 157.375 303 C157.38660156 301.70320313 157.39820313 300.40640625 157.41015625 299.0703125 C157.40628906 297.83023438 157.40242188 296.59015625 157.3984375 295.3125 C157.39336182 293.60513672 157.39336182 293.60513672 157.38818359 291.86328125 C157.20580365 289.04595267 157.20580365 289.04595267 155.83764648 287.13745117 C153.24563133 285.53306714 151.23966958 285.56408842 148.19921875 285.48828125 C147.0076416 285.45275146 145.81606445 285.41722168 144.58837891 285.38061523 C143.30108887 285.35813721 142.01379883 285.33565918 140.6875 285.3125 C139.36927246 285.27906494 138.05104492 285.24562988 136.69287109 285.21118164 C122.46479674 284.86982747 108.23080579 284.90916507 94 285 C94.33 279.06 94.66 273.12 95 267 C96.77157471 266.95512451 98.54314941 266.91024902 100.3684082 266.86401367 C106.22013657 266.71237644 112.07140415 266.54733633 117.92249775 266.37313366 C121.47023096 266.26799993 125.01794547 266.16826084 128.56616211 266.08081055 C132.64493122 265.98004823 136.72269559 265.85589676 140.80078125 265.73046875 C142.07585037 265.70220505 143.35091949 265.67394135 144.66462708 265.64482117 C146.43612373 265.5850988 146.43612373 265.5850988 148.2434082 265.52416992 C149.28487503 265.49530197 150.32634186 265.46643402 151.39936829 265.43669128 C154.02117445 265.19792993 154.02117445 265.19792993 155.83552551 263.64619446 C157.65442104 261.07485797 157.38919452 258.79666285 157.3984375 255.6875 C157.40230469 254.44742188 157.40617187 253.20734375 157.41015625 251.9296875 C157.39855469 250.63289063 157.38695312 249.33609375 157.375 248 C157.38660156 246.70320313 157.39820313 245.40640625 157.41015625 244.0703125 C157.40628906 242.83023438 157.40242188 241.59015625 157.3984375 240.3125 C157.39336182 238.60513672 157.39336182 238.60513672 157.38818359 236.86328125 C157.23296077 234.06013455 157.23296077 234.06013455 155.83552551 232.35380554 C153.27535893 230.46553557 151.40884851 230.56357149 148.2434082 230.47583008 C146.47191154 230.41610771 146.47191154 230.41610771 144.66462708 230.35517883 C143.38955795 230.32691513 142.11448883 230.29865143 140.80078125 230.26953125 C138.84279854 230.20931038 138.84279854 230.20931038 136.84526062 230.14787292 C133.37839298 230.04140731 129.91128821 229.95234179 126.44384766 229.86688232 C122.9043151 229.77656951 119.36528256 229.66982189 115.82617188 229.56445312 C108.88450086 229.36020707 101.9424476 229.17585808 95 229 C95 223.06 95 217.12 95 211 C96.84078125 211.01160156 98.6815625 211.02320313 100.578125 211.03515625 C113.92769309 211.09553743 127.27860443 211.06647001 140.625 210.75 C141.80868164 210.73590088 142.99236328 210.72180176 144.21191406 210.70727539 C145.85885254 210.6588147 145.85885254 210.6588147 147.5390625 210.609375 C148.50021973 210.58842773 149.46137695 210.56748047 150.45166016 210.54589844 C153.72991365 209.84363988 154.94324475 208.60175549 157 206 C158.83888655 197.45196372 158.4613965 187.60317768 157 179 C156.01 177.515 156.01 177.515 155 176 C152.06494197 175.4868082 152.06494197 175.4868082 148.578125 175.48828125 C147.93115158 175.47023941 147.28417816 175.45219757 146.61759949 175.43360901 C144.49512347 175.37847504 142.37293527 175.34492299 140.25 175.3125 C138.76959278 175.28036118 137.28920501 175.24731433 135.80883789 175.21337891 C131.53941112 175.12102902 127.27002734 175.05816334 123 175 C121.99759277 174.98340332 120.99518555 174.96680664 119.96240234 174.94970703 C114.7970083 174.87134087 109.6385086 174.88918745 104.47314453 174.96289062 C101.76002397 174.9918794 99.0486265 175.00450262 96.33544922 175.00585938 Z " fill="#FEFEFE" transform="translate(352,4)"/>
</svg>
