<?xml version="1.0" encoding="UTF-8"?>
<svg version="1.1" xmlns="http://www.w3.org/2000/svg" width="97" height="92">
<path d="M0 0 C2.18738361 1.2615772 4.37627485 2.52054284 6.56640625 3.77734375 C8.31279581 4.80727965 10.05468612 5.84447479 11.7956543 6.88354492 C13.56101674 7.93661521 15.33003786 8.9833183 17.09960938 10.02929688 C35.4580209 20.91604179 35.4580209 20.91604179 37 24 C38.39409782 33.62480711 38.21842421 43.4787338 38.24023438 53.18334961 C38.25004649 55.82501498 38.28121955 58.46593447 38.3125 61.10742188 C38.31902274 62.80728713 38.32427607 64.50715784 38.328125 66.20703125 C38.3404718 66.98633499 38.3528186 67.76563873 38.36553955 68.56855774 C38.3421817 74.34010161 37.57632639 79.34111662 33.38005066 83.67185974 C30.03975271 85.53584703 26.91508718 85.41895612 23.18969727 85.38818359 C22.40710541 85.39344055 21.62451355 85.39869751 20.81820679 85.40411377 C18.23406956 85.41730549 15.65054963 85.40857797 13.06640625 85.3984375 C11.26806012 85.40045868 9.46971479 85.40337049 7.67137146 85.40713501 C3.90282384 85.41155741 0.1344896 85.40513081 -3.6340332 85.39111328 C-8.46063728 85.37403372 -13.28674044 85.38385525 -18.11332607 85.40183067 C-21.82713074 85.4126813 -25.54081705 85.40921609 -29.25462532 85.4014473 C-31.03399782 85.39944819 -32.81338112 85.40189441 -34.59274101 85.40888596 C-37.08221687 85.41652016 -39.57088677 85.40486856 -42.06030273 85.38818359 C-42.793452 85.39425629 -43.52660126 85.40032898 -44.28196716 85.40658569 C-48.6842741 85.35203096 -51.55155726 84.79556434 -55 82 C-57.10650242 78.97290541 -57.26032781 76.39482527 -57.29052734 72.76000977 C-57.30328705 71.71535049 -57.31604675 70.67069122 -57.32919312 69.59437561 C-57.33141876 68.47139572 -57.33364441 67.34841583 -57.3359375 66.19140625 C-57.3425943 65.03253403 -57.3492511 63.8736618 -57.35610962 62.67967224 C-57.36623247 60.22941678 -57.37092675 57.77913377 -57.37060547 55.32885742 C-57.37497946 51.58010486 -57.41130742 47.83252871 -57.44921875 44.08398438 C-57.45508675 41.70312903 -57.45905625 39.32226809 -57.4609375 36.94140625 C-57.47530853 35.82045059 -57.48967957 34.69949493 -57.50448608 33.54457092 C-57.45909222 25.81464893 -57.45909222 25.81464893 -55.28198242 21.95141602 C-52.94555584 19.95344258 -50.70118475 18.35408251 -48.02734375 16.8359375 C-47.0542627 16.27559814 -46.08118164 15.71525879 -45.07861328 15.13793945 C-44.0420459 14.55616943 -43.00547852 13.97439941 -41.9375 13.375 C-39.76620055 12.14842065 -37.59563667 10.92053833 -35.42578125 9.69140625 C-34.34377441 9.0792627 -33.26176758 8.46711914 -32.14697266 7.83642578 C-29.21635912 6.12625704 -26.3766873 4.33000308 -23.54296875 2.46484375 C-22.70838135 1.93133301 -21.87379395 1.39782227 -21.01391602 0.84814453 C-19.46146544 -0.14980274 -17.92765854 -1.17759044 -16.41772461 -2.23876953 C-9.76462159 -6.41269699 -6.2112678 -3.94551199 0 0 Z M-17.5078125 9.0703125 C-18.57773437 9.72 -19.64765625 10.3696875 -20.75 11.0390625 C-21.86375 11.72742188 -22.9775 12.41578125 -24.125 13.125 C-25.21554688 13.79015625 -26.30609375 14.4553125 -27.4296875 15.140625 C-29.58697122 16.45667129 -31.74228706 17.77594945 -33.89550781 19.09863281 C-38.24552303 21.76282899 -42.62007095 24.38535617 -47 27 C-44.00293921 30.23987199 -40.9021636 32.4670456 -37.1328125 34.75 C-36.57560516 35.08999023 -36.01839783 35.42998047 -35.44430542 35.78027344 C-33.67439702 36.85887666 -31.89994982 37.92971734 -30.125 39 C-28.35816211 40.07180749 -26.59232191 41.14523044 -24.82711792 42.21972656 C-23.22127282 43.19620904 -21.61290503 44.16853937 -20.00439453 45.140625 C-17 47 -17 47 -13.86669922 49.296875 C-11.26688268 51.18212414 -11.26688268 51.18212414 -8.98510742 50.96166992 C-6.29460302 49.65827589 -3.78031648 48.18946869 -1.23828125 46.61328125 C-0.11873047 45.92169922 1.00082031 45.23011719 2.15429688 44.51757812 C2.7355835 44.1547876 3.31687012 43.79199707 3.91577148 43.41821289 C5.66132019 42.32883848 7.41118344 41.24672122 9.16210938 40.16601562 C15.52241183 36.22946101 21.81385933 32.20560954 28 28 C24.35916449 24.93667047 20.63315834 22.5173037 16.4921875 20.1796875 C15.884888 19.83495392 15.2775885 19.49022034 14.65188599 19.13504028 C12.72856525 18.0442215 10.80196309 16.95936916 8.875 15.875 C6.94156155 14.78235446 5.00883397 13.68847045 3.07669067 12.59353638 C1.32959703 11.60418608 -0.41938163 10.61816672 -2.16845703 9.63232422 C-4.15248281 8.48857561 -6.09452867 7.27031422 -8 6 C-12.47945005 6 -13.76938364 6.77845226 -17.5078125 9.0703125 Z " fill="#FFFFFF" transform="translate(59,5)"/>
</svg>
