<?xml version="1.0" encoding="UTF-8"?>
<svg version="1.1" xmlns="http://www.w3.org/2000/svg" width="77" height="102">
<path d="M0 0 C0.71520898 7.34366366 1.15974541 14.68652172 1.3125 22.0625 C1.34214844 22.78816162 1.37179688 23.51382324 1.40234375 24.26147461 C1.42578125 26.34765625 1.42578125 26.34765625 1 30 C0.33355469 30.65871094 -0.33289063 31.31742188 -1.01953125 31.99609375 C-3.3147812 33.95000123 -3.3147812 33.95000123 -3.671875 37.3984375 C-3.31968439 44.06843331 0.62820137 49.89039164 3.75 55.625 C4.39206126 56.83778238 5.03269826 58.05131991 5.671875 59.265625 C9.97822392 68.88542314 9.97822392 68.88542314 17 76 C18.258125 75.814375 19.51625 75.62875 20.8125 75.4375 C27.69712611 75.33788322 32.44429325 80.41473011 37.39550781 84.63964844 C39.81988573 86.69513136 42.31908335 88.65428259 44.8125 90.625 C46.2093692 91.74871354 47.60563685 92.87317831 49 94 C46.63987122 96.7083445 44.40006885 97.85019927 41.0625 99.125 C40.20785156 99.45757812 39.35320313 99.79015625 38.47265625 100.1328125 C30.86717573 102.80013742 24.87949566 102.46333498 17.4765625 99.25390625 C1.16888474 90.99717981 -12.13197804 72.83543083 -18.11328125 55.8359375 C-22.44789051 41.87061459 -26.91417228 22.58992483 -20 9 C-14.1510454 2.0736064 -8.79470262 -0.05982791 0 0 Z " fill="#FFFFFF" transform="translate(23,0)"/>
<path d="M0 0 C2.31736283 1.5654824 4.45721565 3.1279044 6.625 4.875 C7.19734375 5.32230469 7.7696875 5.76960938 8.359375 6.23046875 C14.51713038 11.08507125 14.51713038 11.08507125 16 13 C15.76811536 16.30435606 15.48929359 19.02141281 14 22 C9.58472926 20.54707727 6.68628928 18.27647565 3.1875 15.25 C-1.41451788 11.31335126 -6.09284462 7.55047125 -11 4 C-5.48010002 -1.70389665 -5.48010002 -1.70389665 0 0 Z " fill="#FFFFFF" transform="translate(61,71)"/>
<path d="M0 0 C6.75 0.75 6.75 0.75 9 3 C9.47965793 6.60428674 9.37038426 10.24241521 9.375 13.875 C9.39949219 14.88175781 9.42398438 15.88851563 9.44921875 16.92578125 C9.47848966 24.27278003 9.47848966 24.27278003 7.2265625 27.6953125 C5 29 5 29 1 29 C-0.38308781 26.23382437 -0.11210196 23.98982 -0.09765625 20.8984375 C-0.09443359 19.68671875 -0.09121094 18.475 -0.08789062 17.2265625 C-0.07951172 15.95554687 -0.07113281 14.68453125 -0.0625 13.375 C-0.05798828 12.09625 -0.05347656 10.8175 -0.04882812 9.5 C-0.03701203 6.33328708 -0.02053815 3.16666644 0 0 Z " fill="#FFFFFF" transform="translate(25,0)"/>
</svg>
